<svg width="1090" height="572" viewBox="0 0 1090 572" fill="none" xmlns="http://www.w3.org/2000/svg">
<path d="M891.228 571.633V383.579L799.961 0H913.314L945.143 193.576L976.973 0H1090L999.059 383.579V571.633H891.228Z" fill="black"/>
<path d="M490.11 571.633V0H603.787V204.294H657.702V0H771.379V571.633H657.702V312.449H603.787V571.633H490.11Z" fill="black"/>
<path d="M61.3856 571.633L0 0H111.728L143.233 360.843L175.387 0H281.919L312.449 360.843L342.98 0H456.007L393.647 571.633H256.585L228.004 296.534L200.721 571.633H61.3856Z" fill="black"/>
<path d="M698.311 278.862V262.741H701.69L706.173 275.77C706.129 275.299 706.077 274.747 706.019 274.114C705.974 273.466 705.938 272.811 705.908 272.149C705.879 271.471 705.864 270.882 705.864 270.382V262.741H708.382V278.862H705.003L700.564 265.833C700.593 266.26 700.63 266.775 700.674 267.378C700.718 267.982 700.755 268.6 700.785 269.233C700.814 269.867 700.829 270.448 700.829 270.978V278.862H698.311Z" fill="white"/>
<path d="M690.105 279.083C689.074 279.083 688.176 278.892 687.41 278.509C686.66 278.111 686.078 277.559 685.666 276.852C685.268 276.131 685.07 275.284 685.07 274.313V267.29C685.07 266.318 685.268 265.479 685.666 264.773C686.078 264.051 686.66 263.499 687.41 263.116C688.176 262.719 689.074 262.52 690.105 262.52C691.15 262.52 692.048 262.719 692.799 263.116C693.55 263.499 694.124 264.051 694.521 264.773C694.934 265.479 695.14 266.311 695.14 267.268V274.313C695.14 275.284 694.934 276.131 694.521 276.852C694.124 277.559 693.55 278.111 692.799 278.509C692.048 278.892 691.15 279.083 690.105 279.083ZM690.105 276.654C690.856 276.654 691.422 276.455 691.805 276.057C692.188 275.645 692.379 275.064 692.379 274.313V267.29C692.379 266.525 692.188 265.943 691.805 265.546C691.422 265.148 690.856 264.949 690.105 264.949C689.354 264.949 688.787 265.148 688.404 265.546C688.021 265.943 687.83 266.525 687.83 267.29V274.313C687.83 275.064 688.021 275.645 688.404 276.057C688.802 276.455 689.369 276.654 690.105 276.654Z" fill="white"/>
<path d="M672.226 278.862V276.433H675.472V265.17H672.226V262.741H681.501V265.17H678.254V276.433H681.501V278.862H672.226Z" fill="white"/>
<path d="M662.23 278.862V265.303H658.012V262.741H669.231V265.303H665.013V278.862H662.23Z" fill="white"/>
<path d="M644.528 278.862L648.591 262.741H652.147L656.232 278.862H653.405L652.522 274.953H648.238L647.354 278.862H644.528ZM648.746 272.701H652.014L651.042 268.372C650.88 267.651 650.741 267.003 650.623 266.429C650.505 265.84 650.424 265.413 650.38 265.148C650.336 265.413 650.255 265.84 650.137 266.429C650.034 267.003 649.894 267.643 649.717 268.35L648.746 272.701Z" fill="white"/>
<path d="M632.257 278.862V276.234L638.728 265.303H632.412V262.741H641.775V265.369L635.283 276.3H642.018V278.862H632.257Z" fill="white"/>
<path d="M619.259 278.862V276.433H622.505V265.17H619.259V262.741H628.534V265.17H625.288V276.433H628.534V278.862H619.259Z" fill="white"/>
<path d="M605.62 278.862V262.741H608.998L613.481 275.77C613.437 275.299 613.386 274.747 613.327 274.114C613.283 273.466 613.246 272.811 613.216 272.149C613.187 271.471 613.172 270.882 613.172 270.382V262.741H615.69V278.862H612.311L607.872 265.833C607.902 266.26 607.938 266.775 607.983 267.378C608.027 267.982 608.064 268.6 608.093 269.233C608.122 269.867 608.137 270.448 608.137 270.978V278.862H605.62Z" fill="white"/>
<path d="M591.561 278.862L595.624 262.741H599.18L603.265 278.862H600.439L599.555 274.953H595.271L594.388 278.862H591.561ZM595.779 272.701H599.047L598.076 268.372C597.914 267.651 597.774 267.003 597.656 266.429C597.538 265.84 597.457 265.413 597.413 265.148C597.369 265.413 597.288 265.84 597.17 266.429C597.067 267.003 596.927 267.643 596.75 268.35L595.779 272.701Z" fill="white"/>
<path d="M584.26 279.083C583.229 279.083 582.324 278.892 581.543 278.509C580.778 278.111 580.182 277.559 579.755 276.852C579.342 276.131 579.136 275.284 579.136 274.313V267.29C579.136 266.304 579.342 265.457 579.755 264.75C580.182 264.044 580.778 263.499 581.543 263.116C582.324 262.719 583.229 262.52 584.26 262.52C585.305 262.52 586.203 262.719 586.954 263.116C587.719 263.499 588.316 264.044 588.743 264.75C589.17 265.457 589.383 266.304 589.383 267.29H586.601C586.601 266.525 586.394 265.943 585.982 265.546C585.585 265.148 585.011 264.949 584.26 264.949C583.509 264.949 582.927 265.148 582.515 265.546C582.103 265.943 581.897 266.517 581.897 267.268V274.313C581.897 275.064 582.103 275.645 582.515 276.057C582.927 276.47 583.509 276.676 584.26 276.676C585.011 276.676 585.585 276.47 585.982 276.057C586.394 275.645 586.601 275.064 586.601 274.313V272.679H583.862V270.294H589.383V274.313C589.383 275.284 589.17 276.131 588.743 276.852C588.316 277.559 587.719 278.111 586.954 278.509C586.203 278.892 585.305 279.083 584.26 279.083Z" fill="white"/>
<path d="M565.983 278.862V262.741H571.084C572.159 262.741 573.087 262.94 573.867 263.337C574.662 263.735 575.28 264.294 575.722 265.015C576.164 265.722 576.384 266.561 576.384 267.533C576.384 268.593 576.112 269.528 575.567 270.338C575.037 271.147 574.316 271.722 573.403 272.06L576.605 278.862H573.514L570.709 272.458H568.743V278.862H565.983ZM568.743 270.029H571.084C571.865 270.029 572.476 269.815 572.917 269.388C573.359 268.961 573.58 268.372 573.58 267.621C573.58 266.856 573.359 266.26 572.917 265.833C572.476 265.391 571.865 265.17 571.084 265.17H568.743V270.029Z" fill="white"/>
<path d="M557.688 279.083C556.657 279.083 555.759 278.892 554.994 278.509C554.243 278.111 553.661 277.559 553.249 276.852C552.852 276.131 552.653 275.284 552.653 274.313V267.29C552.653 266.318 552.852 265.479 553.249 264.773C553.661 264.051 554.243 263.499 554.994 263.116C555.759 262.719 556.657 262.52 557.688 262.52C558.733 262.52 559.631 262.719 560.382 263.116C561.133 263.499 561.707 264.051 562.105 264.773C562.517 265.479 562.723 266.311 562.723 267.268V274.313C562.723 275.284 562.517 276.131 562.105 276.852C561.707 277.559 561.133 278.111 560.382 278.509C559.631 278.892 558.733 279.083 557.688 279.083ZM557.688 276.654C558.439 276.654 559.006 276.455 559.388 276.057C559.771 275.645 559.963 275.064 559.963 274.313V267.29C559.963 266.525 559.771 265.943 559.388 265.546C559.006 265.148 558.439 264.949 557.688 264.949C556.937 264.949 556.37 265.148 555.987 265.546C555.605 265.943 555.413 266.525 555.413 267.29V274.313C555.413 275.064 555.605 275.645 555.987 276.057C556.385 276.455 556.952 276.654 557.688 276.654Z" fill="white"/>
<path d="M690.186 257.356V229.558H694.946V240.792H698.259L703.475 229.558H708.654L702.447 242.886L708.959 257.356H703.666L698.183 245.133H694.946V257.356H690.186Z" fill="white"/>
<path d="M676.036 257.737C674.259 257.737 672.697 257.407 671.352 256.747C670.032 256.061 669.004 255.109 668.268 253.891C667.557 252.647 667.201 251.187 667.201 249.512V237.403C667.201 235.702 667.557 234.242 668.268 233.024C669.004 231.805 670.032 230.866 671.352 230.206C672.697 229.52 674.259 229.178 676.036 229.178C677.838 229.178 679.387 229.52 680.681 230.206C682.001 230.866 683.029 231.805 683.766 233.024C684.502 234.242 684.87 235.702 684.87 237.403H680.072C680.072 236.083 679.717 235.08 679.006 234.394C678.32 233.709 677.33 233.366 676.036 233.366C674.741 233.366 673.738 233.709 673.027 234.394C672.317 235.08 671.961 236.07 671.961 237.365V249.512C671.961 250.806 672.317 251.809 673.027 252.52C673.738 253.205 674.741 253.548 676.036 253.548C677.33 253.548 678.32 253.205 679.006 252.52C679.717 251.809 680.072 250.806 680.072 249.512H684.87C684.87 251.162 684.502 252.609 683.766 253.853C683.029 255.097 682.001 256.061 680.681 256.747C679.387 257.407 677.838 257.737 676.036 257.737Z" fill="white"/>
<path d="M653.051 257.737C651.274 257.737 649.726 257.407 648.405 256.747C647.111 256.061 646.108 255.109 645.397 253.891C644.712 252.647 644.369 251.187 644.369 249.512V237.403C644.369 235.727 644.712 234.28 645.397 233.062C646.108 231.818 647.111 230.866 648.405 230.206C649.726 229.52 651.274 229.178 653.051 229.178C654.853 229.178 656.402 229.52 657.697 230.206C658.991 230.866 659.981 231.818 660.667 233.062C661.378 234.28 661.733 235.714 661.733 237.365V249.512C661.733 251.187 661.378 252.647 660.667 253.891C659.981 255.109 658.991 256.061 657.697 256.747C656.402 257.407 654.853 257.737 653.051 257.737ZM653.051 253.548C654.346 253.548 655.323 253.205 655.983 252.52C656.643 251.809 656.973 250.806 656.973 249.512V237.403C656.973 236.083 656.643 235.08 655.983 234.394C655.323 233.709 654.346 233.366 653.051 233.366C651.756 233.366 650.779 233.709 650.119 234.394C649.459 235.08 649.129 236.083 649.129 237.403V249.512C649.129 250.806 649.459 251.809 650.119 252.52C650.804 253.205 651.782 253.548 653.051 253.548Z" fill="white"/>
<path d="M621.689 257.356V229.558H630.485C632.338 229.558 633.938 229.901 635.283 230.587C636.654 231.272 637.72 232.237 638.482 233.481C639.243 234.699 639.624 236.146 639.624 237.822C639.624 239.649 639.154 241.261 638.215 242.658C637.301 244.054 636.057 245.044 634.483 245.628L640.005 257.356H634.674L629.838 246.313H626.449V257.356H621.689ZM626.449 242.124H630.485C631.831 242.124 632.884 241.756 633.646 241.02C634.407 240.284 634.788 239.269 634.788 237.974C634.788 236.654 634.407 235.626 633.646 234.889C632.884 234.128 631.831 233.747 630.485 233.747H626.449V242.124Z" fill="white"/>
<path d="M597.295 257.356L604.302 229.558H610.433L617.477 257.356H612.603L611.08 250.616H603.693L602.169 257.356H597.295ZM604.568 246.732H610.204L608.529 239.269C608.249 238.025 608.008 236.908 607.805 235.918C607.602 234.902 607.462 234.166 607.386 233.709C607.31 234.166 607.17 234.902 606.967 235.918C606.79 236.908 606.549 238.012 606.244 239.23L604.568 246.732Z" fill="white"/>
<path d="M576.024 257.356V229.558H584.821C586.674 229.558 588.273 229.901 589.619 230.587C590.989 231.272 592.056 232.237 592.817 233.481C593.579 234.699 593.959 236.146 593.959 237.822C593.959 239.649 593.49 241.261 592.551 242.658C591.637 244.054 590.393 245.044 588.819 245.628L594.34 257.356H589.009L584.173 246.313H580.784V257.356H576.024ZM580.784 242.124H584.821C586.166 242.124 587.22 241.756 587.981 241.02C588.743 240.284 589.123 239.269 589.123 237.974C589.123 236.654 588.743 235.626 587.981 234.889C587.22 234.128 586.166 233.747 584.821 233.747H580.784V242.124Z" fill="white"/>
<path d="M553.23 257.356V229.558H562.483C564.336 229.558 565.948 229.914 567.319 230.625C568.715 231.335 569.794 232.338 570.556 233.633C571.317 234.902 571.698 236.4 571.698 238.126C571.698 239.827 571.305 241.325 570.518 242.619C569.756 243.914 568.69 244.917 567.319 245.628C565.948 246.338 564.336 246.694 562.483 246.694H557.99V257.356H553.23ZM557.99 242.391H562.483C563.803 242.391 564.857 242.01 565.644 241.249C566.456 240.462 566.862 239.421 566.862 238.126C566.862 236.806 566.456 235.765 565.644 235.004C564.857 234.242 563.803 233.861 562.483 233.861H557.99V242.391Z" fill="white"/>
</svg>
