<svg width="1027" height="572" viewBox="0 0 1027 572" fill="none" xmlns="http://www.w3.org/2000/svg">
<path fill-rule="evenodd" clip-rule="evenodd" d="M0 0L61.3856 571.633H200.721L228.004 296.534L256.585 571.633H393.647L456.007 0H342.98L312.449 360.843L281.919 0H175.387L143.233 360.843L111.728 0H0ZM456.11 571.633V0H569.787V204.294H623.702V0H736.961H737.379H850.314L882.143 193.576L913.973 0H1027L936.059 383.579V571.633H828.228V383.579L737.379 1.75666V571.633H623.702V312.449H569.787V571.633H456.11Z" fill="black"/>
<path fill-rule="evenodd" clip-rule="evenodd" d="M623.885 259.956C621.71 259.956 619.815 259.552 618.199 258.744C616.614 257.905 615.387 256.74 614.517 255.248C613.678 253.726 613.259 251.939 613.259 249.888V235.067C613.259 233.016 613.678 231.245 614.517 229.754C615.387 228.231 616.614 227.066 618.199 226.258C619.815 225.419 621.71 225 623.885 225C626.091 225 627.986 225.419 629.571 226.258C631.156 227.066 632.368 228.231 633.207 229.754C634.077 231.245 634.512 233.001 634.512 235.021V249.888C634.512 251.939 634.077 253.726 633.207 255.248C632.368 256.74 631.156 257.905 629.571 258.744C627.986 259.552 626.091 259.956 623.885 259.956ZM623.885 254.829C625.47 254.829 626.666 254.409 627.474 253.57C628.282 252.7 628.686 251.473 628.686 249.888V235.067C628.686 233.451 628.282 232.224 627.474 231.385C626.666 230.546 625.47 230.127 623.885 230.127C622.3 230.127 621.104 230.546 620.296 231.385C619.488 232.224 619.084 233.451 619.084 235.067V249.888C619.084 251.473 619.488 252.7 620.296 253.57C621.135 254.409 622.331 254.829 623.885 254.829ZM646.285 258.744C647.932 259.552 649.843 259.956 652.018 259.956C654.224 259.956 656.119 259.552 657.704 258.744C659.32 257.905 660.578 256.724 661.479 255.202C662.38 253.679 662.831 251.908 662.831 249.888H656.958C656.958 251.473 656.523 252.7 655.653 253.57C654.814 254.409 653.602 254.829 652.018 254.829C650.433 254.829 649.206 254.409 648.336 253.57C647.466 252.7 647.031 251.473 647.031 249.888V235.021C647.031 233.436 647.466 232.224 648.336 231.385C649.206 230.546 650.433 230.127 652.018 230.127C653.602 230.127 654.814 230.546 655.653 231.385C656.523 232.224 656.958 233.451 656.958 235.067H662.831C662.831 232.985 662.38 231.199 661.479 229.707C660.578 228.216 659.32 227.066 657.704 226.258C656.119 225.419 654.224 225 652.018 225C649.843 225 647.932 225.419 646.285 226.258C644.669 227.066 643.411 228.216 642.51 229.707C641.64 231.199 641.205 232.985 641.205 235.067V249.888C641.205 251.939 641.64 253.726 642.51 255.248C643.411 256.74 644.669 257.905 646.285 258.744ZM669.337 225.466V259.49H675.163V244.529H679.125L685.836 259.49H692.315L684.345 241.779L691.942 225.466H685.603L679.218 239.215H675.163V225.466H669.337ZM585.499 225.466V259.49H591.324V245.973H595.473L601.392 259.49H607.917L601.159 245.135C603.085 244.42 604.608 243.208 605.726 241.499C606.876 239.79 607.451 237.817 607.451 235.58C607.451 233.529 606.985 231.758 606.052 230.267C605.12 228.744 603.815 227.564 602.137 226.725C600.491 225.886 598.533 225.466 596.265 225.466H585.499ZM596.265 240.847H591.324V230.593H596.265C597.912 230.593 599.201 231.059 600.133 231.991C601.065 232.892 601.532 234.151 601.532 235.766C601.532 237.351 601.065 238.594 600.133 239.495C599.201 240.396 597.912 240.847 596.265 240.847ZM555.641 259.49L564.217 225.466H571.721L580.343 259.49H574.378L572.513 251.24H563.471L561.607 259.49H555.641ZM564.543 246.486H571.441L569.391 237.351C569.049 235.829 568.754 234.461 568.505 233.25C568.256 232.007 568.086 231.106 567.992 230.546C567.899 231.106 567.728 232.007 567.48 233.25C567.262 234.461 566.967 235.813 566.594 237.304L564.543 246.486ZM529.606 225.466V259.49H535.432V245.973H539.58L545.499 259.49H552.024L545.266 245.135C547.193 244.42 548.715 243.208 549.834 241.499C550.983 239.79 551.558 237.817 551.558 235.58C551.558 233.529 551.092 231.758 550.16 230.267C549.228 228.744 547.923 227.564 546.245 226.725C544.598 225.886 542.641 225.466 540.373 225.466H529.606ZM540.373 240.847H535.432V230.593H540.373C542.019 230.593 543.309 231.059 544.241 231.991C545.173 232.892 545.639 234.151 545.639 235.766C545.639 237.351 545.173 238.594 544.241 239.495C543.309 240.396 542.019 240.847 540.373 240.847ZM501.706 259.49V225.466H513.032C515.3 225.466 517.273 225.901 518.951 226.771C520.66 227.641 521.981 228.869 522.913 230.453C523.845 232.007 524.311 233.84 524.311 235.953C524.311 238.035 523.829 239.868 522.866 241.453C521.934 243.037 520.629 244.265 518.951 245.135C517.273 246.005 515.3 246.44 513.032 246.44H507.532V259.49H501.706ZM507.532 241.173H513.032C514.648 241.173 515.937 240.707 516.9 239.775C517.895 238.811 518.392 237.538 518.392 235.953C518.392 234.337 517.895 233.063 516.9 232.131C515.937 231.199 514.648 230.733 513.032 230.733H507.532V241.173ZM507.163 286.083C505.901 286.083 504.802 285.849 503.865 285.38C502.946 284.894 502.234 284.218 501.73 283.353C501.243 282.47 501 281.434 501 280.244V271.649C501 270.459 501.243 269.432 501.73 268.567C502.234 267.684 502.946 267.009 503.865 266.54C504.802 266.054 505.901 265.81 507.163 265.81C508.442 265.81 509.542 266.054 510.461 266.54C511.38 267.009 512.082 267.684 512.569 268.567C513.073 269.432 513.326 270.45 513.326 271.622V280.244C513.326 281.434 513.073 282.47 512.569 283.353C512.082 284.218 511.38 284.894 510.461 285.38C509.542 285.849 508.442 286.083 507.163 286.083ZM507.163 283.11C508.082 283.11 508.776 282.866 509.244 282.38C509.713 281.875 509.947 281.163 509.947 280.244V271.649C509.947 270.712 509.713 270 509.244 269.513C508.776 269.027 508.082 268.784 507.163 268.784C506.244 268.784 505.55 269.027 505.082 269.513C504.613 270 504.379 270.712 504.379 271.649V280.244C504.379 281.163 504.613 281.875 505.082 282.38C505.568 282.866 506.262 283.11 507.163 283.11ZM539.686 286.083C538.425 286.083 537.316 285.849 536.361 285.38C535.424 284.894 534.694 284.218 534.172 283.353C533.667 282.47 533.415 281.434 533.415 280.244V271.649C533.415 270.441 533.667 269.405 534.172 268.54C534.694 267.675 535.424 267.009 536.361 266.54C537.316 266.054 538.425 265.81 539.686 265.81C540.965 265.81 542.065 266.054 542.984 266.54C543.921 267.009 544.651 267.675 545.173 268.54C545.696 269.405 545.957 270.441 545.957 271.649H542.551C542.551 270.712 542.299 270 541.794 269.513C541.308 269.027 540.605 268.784 539.686 268.784C538.767 268.784 538.055 269.027 537.551 269.513C537.046 270 536.794 270.703 536.794 271.622V280.244C536.794 281.163 537.046 281.875 537.551 282.38C538.055 282.884 538.767 283.137 539.686 283.137C540.605 283.137 541.308 282.884 541.794 282.38C542.299 281.875 542.551 281.163 542.551 280.244V278.244H539.199V275.325H545.957V280.244C545.957 281.434 545.696 282.47 545.173 283.353C544.651 284.218 543.921 284.894 542.984 285.38C542.065 285.849 540.965 286.083 539.686 286.083ZM669.238 286.083C667.976 286.083 666.877 285.849 665.94 285.38C665.021 284.894 664.309 284.218 663.805 283.353C663.318 282.47 663.075 281.434 663.075 280.244V271.649C663.075 270.459 663.318 269.432 663.805 268.567C664.309 267.684 665.021 267.009 665.94 266.54C666.877 266.054 667.976 265.81 669.238 265.81C670.517 265.81 671.616 266.054 672.536 266.54C673.455 267.009 674.157 267.684 674.644 268.567C675.148 269.432 675.401 270.45 675.401 271.622V280.244C675.401 281.434 675.148 282.47 674.644 283.353C674.157 284.218 673.455 284.894 672.536 285.38C671.616 285.849 670.517 286.083 669.238 286.083ZM669.238 283.11C670.157 283.11 670.851 282.866 671.319 282.38C671.788 281.875 672.022 281.163 672.022 280.244V271.649C672.022 270.712 671.788 270 671.319 269.513C670.851 269.027 670.157 268.784 669.238 268.784C668.319 268.784 667.625 269.027 667.157 269.513C666.688 270 666.454 270.712 666.454 271.649V280.244C666.454 281.163 666.688 281.875 667.157 282.38C667.643 282.866 668.337 283.11 669.238 283.11ZM679.282 285.813V266.081H683.418L688.905 282.028C688.851 281.452 688.788 280.776 688.716 280.001C688.662 279.208 688.617 278.406 688.581 277.595C688.545 276.766 688.527 276.046 688.527 275.433V266.081H691.608V285.813H687.473L682.04 269.865C682.076 270.387 682.121 271.018 682.175 271.757C682.229 272.496 682.274 273.253 682.31 274.027C682.346 274.802 682.364 275.514 682.364 276.163V285.813H679.282ZM647.354 282.839V285.813H658.707V282.839H654.733V269.054H658.707V266.081H647.354V269.054H651.328V282.839H647.354ZM635.12 285.813V269.216H629.958V266.081H643.689V269.216H638.526V285.813H635.12ZM618.426 266.081L613.453 285.813H616.912L617.994 281.028H623.238L624.319 285.813H627.779L622.778 266.081H618.426ZM622.616 278.271H618.615L619.805 272.946C620.021 272.081 620.192 271.297 620.318 270.595C620.462 269.874 620.562 269.351 620.616 269.027C620.67 269.351 620.769 269.874 620.913 270.595C621.057 271.297 621.228 272.09 621.427 272.973L622.616 278.271ZM598.434 285.813V282.596L606.354 269.216H598.623V266.081H610.084V269.297L602.137 282.677H610.381V285.813H598.434ZM582.524 282.839V285.813H593.877V282.839H589.903V269.054H593.877V266.081H582.524V269.054H586.498V282.839H582.524ZM565.83 285.813V266.081H569.966L575.453 282.028C575.399 281.452 575.336 280.776 575.264 280.001C575.21 279.208 575.164 278.406 575.128 277.595C575.092 276.766 575.074 276.046 575.074 275.433V266.081H578.156V285.813H574.02L568.587 269.865C568.623 270.387 568.668 271.018 568.722 271.757C568.776 272.496 568.821 273.253 568.857 274.027C568.893 274.802 568.912 275.514 568.912 276.163V285.813H565.83ZM553.596 266.081L548.623 285.813H552.082L553.164 281.028H558.407L559.489 285.813H562.949L557.948 266.081H553.596ZM557.786 278.271H553.785L554.975 272.946C555.191 272.081 555.362 271.297 555.488 270.595C555.632 269.874 555.731 269.351 555.786 269.027C555.84 269.351 555.939 269.874 556.083 270.595C556.227 271.297 556.398 272.09 556.596 272.973L557.786 278.271ZM517.316 266.081V285.813H520.694V277.974H523.1L526.533 285.813H530.317L526.398 277.487C527.515 277.073 528.398 276.37 529.047 275.379C529.713 274.388 530.047 273.244 530.047 271.946C530.047 270.757 529.777 269.73 529.236 268.865C528.695 267.982 527.939 267.297 526.965 266.81C526.01 266.324 524.875 266.081 523.56 266.081H517.316ZM523.56 275.001H520.694V269.054H523.56C524.515 269.054 525.263 269.324 525.803 269.865C526.344 270.387 526.614 271.117 526.614 272.054C526.614 272.973 526.344 273.694 525.803 274.217C525.263 274.739 524.515 275.001 523.56 275.001Z" fill="white"/>
</svg>
